<svg width="55" height="56" viewBox="0 0 55 56" fill="none" xmlns="http://www.w3.org/2000/svg">
<path d="M1.81294 27.5445L1.27966 28.0758L1.81294 28.6071L8.19896 34.9696L8.72831 35.497L20.0621 46.7889L20.5954 47.3202L26.9815 53.6828L27.5109 54.2102L28.0402 53.6828L34.4263 47.3203L34.9595 46.789L46.2933 35.4969L46.8227 34.9695L53.2087 28.607L53.742 28.0757L53.2087 27.5444L46.8227 21.1819L46.2933 20.6545L34.9595 9.36251L34.4262 8.8312L28.0402 2.46869L27.5108 1.9413L26.9815 2.46869L26.9693 2.48082L20.5954 8.83116L20.0621 9.36247L20.0622 9.36252L8.72834 20.6546L8.19899 21.182L1.81294 27.5445ZM27.5108 39.3677L16.177 28.0758L27.5108 16.7837L38.8446 28.0757L27.5108 39.3677Z" fill="#1500FF" stroke="white" stroke-width="1.5"/>
<path d="M53 34.9455V44.3521V54H34.4062L53 34.9455Z" fill="#1500FF"/>
<path d="M53.75 34.9455V33.103L52.4632 34.4217L33.8695 53.4762L32.6265 54.75H34.4062H53H53.75V54V44.3521V34.9455Z" fill="#1500FF" stroke="white" stroke-width="1.5"/>
<path d="M20.5937 54.75H22.4091L21.123 53.4687L2.52931 34.9435L1.24996 33.6689V35.4749V54V54.75H1.99996H11.4145H20.5937Z" fill="#1500FF" stroke="white" stroke-width="1.5"/>
</svg>
