<svg width="96" height="97" viewBox="0 0 96 97" fill="none" xmlns="http://www.w3.org/2000/svg">
<path d="M0.644638 47.3762L12.6655 35.3553L60.0416 82.7315L48.0208 94.7523L0.644638 47.3762Z" fill="white"/>
<path d="M0.644638 47.3762L48.0208 0L60.0416 12.0208L12.6654 59.397L0.644638 47.3762Z" fill="white"/>
<path d="M35.9998 12.0208L48.0208 0L95.3968 47.3761L83.376 59.3969L35.9998 12.0208Z" fill="white"/>
<path d="M35.9998 82.7313L83.376 35.3552L95.3968 47.3761L48.0208 94.7523L35.9998 82.7313Z" fill="white"/>
<path d="M0.644638 47.3762L12.6655 35.3553L60.0416 82.7315L48.0208 94.7523L0.644638 47.3762Z" fill="white"/>
<path d="M0.644638 47.3762L48.0208 0L60.0416 12.0208L12.6654 59.397L0.644638 47.3762Z" fill="white"/>
<path d="M35.9998 12.0208L48.0208 0L95.3968 47.3761L83.376 59.3969L35.9998 12.0208Z" fill="white"/>
<path d="M35.9998 82.7313L83.376 35.3552L95.3968 47.3761L48.0208 94.7523L35.9998 82.7313Z" fill="white"/>
<path d="M96 60.3553V78.1275V96.3553H61L96 60.3553Z" fill="white"/>
<path d="M35 96.3553H17.7215H8.64268e-07V61.3553L35 96.3553Z" fill="white"/>
</svg>
